<?xml version="1.0" standalone="no"?>
<svg width="567.429" height="460.952" viewBox="0 0 567.429 460.952" xmlns="http://www.w3.org/2000/svg" shape-rendering="crispEdges">
<title>
./plots/genmuons_showered_tag_methods/genmuons_showered_tag_methods.svg
</title>
<desc>
Creator: ROOT Version 6.34.08
CreationDate: Wed Jun 11 11:03:41 2025</desc>
<defs>
</defs>
<rect x="0.5" y="0" width="566.929" height="460.452" fill="white"/>
<rect x="57.1929" y="46.0452" width="453.543" height="368.362" fill="white"/>
<rect x="57.1929" y="46.0452" width="453.543" height="368.362" fill="none" stroke="black"/>
<path d="M57.1929,414.407h 453.543" fill="none" stroke="black"/>
<path d="M57.1929,403.356v 11.0509" fill="none" stroke="black"/>
<path d="M70.7924,408.882v 5.52543" fill="none" stroke="black"/>
<path d="M84.3919,408.882v 5.52543" fill="none" stroke="black"/>
<path d="M97.9914,408.882v 5.52543" fill="none" stroke="black"/>
<path d="M111.591,408.882v 5.52543" fill="none" stroke="black"/>
<path d="M125.19,403.356v 11.0509" fill="none" stroke="black"/>
<path d="M138.79,408.882v 5.52543" fill="none" stroke="black"/>
<path d="M152.389,408.882v 5.52543" fill="none" stroke="black"/>
<path d="M165.989,408.882v 5.52543" fill="none" stroke="black"/>
<path d="M179.588,408.882v 5.52543" fill="none" stroke="black"/>
<path d="M193.188,403.356v 11.0509" fill="none" stroke="black"/>
<path d="M206.787,408.882v 5.52543" fill="none" stroke="black"/>
<path d="M220.387,408.882v 5.52543" fill="none" stroke="black"/>
<path d="M233.986,408.882v 5.52543" fill="none" stroke="black"/>
<path d="M247.586,408.882v 5.52543" fill="none" stroke="black"/>
<path d="M261.185,403.356v 11.0509" fill="none" stroke="black"/>
<path d="M274.785,408.882v 5.52543" fill="none" stroke="black"/>
<path d="M288.384,408.882v 5.52543" fill="none" stroke="black"/>
<path d="M301.984,408.882v 5.52543" fill="none" stroke="black"/>
<path d="M315.583,408.882v 5.52543" fill="none" stroke="black"/>
<path d="M329.183,403.356v 11.0509" fill="none" stroke="black"/>
<path d="M342.782,408.882v 5.52543" fill="none" stroke="black"/>
<path d="M356.382,408.882v 5.52543" fill="none" stroke="black"/>
<path d="M369.981,408.882v 5.52543" fill="none" stroke="black"/>
<path d="M383.581,408.882v 5.52543" fill="none" stroke="black"/>
<path d="M397.18,403.356v 11.0509" fill="none" stroke="black"/>
<path d="M410.78,408.882v 5.52543" fill="none" stroke="black"/>
<path d="M424.379,408.882v 5.52543" fill="none" stroke="black"/>
<path d="M437.979,408.882v 5.52543" fill="none" stroke="black"/>
<path d="M451.578,408.882v 5.52543" fill="none" stroke="black"/>
<path d="M465.178,403.356v 11.0509" fill="none" stroke="black"/>
<path d="M465.178,403.356v 11.0509" fill="none" stroke="black"/>
<path d="M478.777,408.882v 5.52543" fill="none" stroke="black"/>
<path d="M492.377,408.882v 5.52543" fill="none" stroke="black"/>
<path d="M505.976,408.882v 5.52543" fill="none" stroke="black"/>
<text xml:space="preserve" x="53.975" y="427.8" fill="black" font-size="13.173" font-family="Helvetica">0
</text>
<text xml:space="preserve" x="114.548" y="427.8" fill="black" font-size="13.173" font-family="Helvetica">500
</text>
<text xml:space="preserve" x="178.908" y="427.8" fill="black" font-size="13.173" font-family="Helvetica">1000
</text>
<text xml:space="preserve" x="247.053" y="427.8" fill="black" font-size="13.173" font-family="Helvetica">1500
</text>
<text xml:space="preserve" x="315.198" y="427.8" fill="black" font-size="13.173" font-family="Helvetica">2000
</text>
<text xml:space="preserve" x="382.87" y="427.8" fill="black" font-size="13.173" font-family="Helvetica">2500
</text>
<text xml:space="preserve" x="451.015" y="427.8" fill="black" font-size="13.173" font-family="Helvetica">3000
</text>
<text xml:space="preserve" x="371.512" y="448.622" fill="black" font-size="17.3973" font-family="Helvetica">GenMuon Pt [GeV]
</text>
<path d="M57.1929,414.407v -368.362" fill="none" stroke="black"/>
<path d="M70.7992,347.707h -13.6063" fill="none" stroke="black"/>
<path d="M63.9961,330.948h -6.80315" fill="none" stroke="black"/>
<path d="M63.9961,314.189h -6.80315" fill="none" stroke="black"/>
<path d="M63.9961,297.43h -6.80315" fill="none" stroke="black"/>
<path d="M70.7992,280.671h -13.6063" fill="none" stroke="black"/>
<path d="M63.9961,263.912h -6.80315" fill="none" stroke="black"/>
<path d="M63.9961,247.153h -6.80315" fill="none" stroke="black"/>
<path d="M63.9961,230.394h -6.80315" fill="none" stroke="black"/>
<path d="M70.7992,213.635h -13.6063" fill="none" stroke="black"/>
<path d="M63.9961,196.876h -6.80315" fill="none" stroke="black"/>
<path d="M63.9961,180.117h -6.80315" fill="none" stroke="black"/>
<path d="M63.9961,163.358h -6.80315" fill="none" stroke="black"/>
<path d="M70.7992,146.599h -13.6063" fill="none" stroke="black"/>
<path d="M63.9961,129.84h -6.80315" fill="none" stroke="black"/>
<path d="M63.9961,113.081h -6.80315" fill="none" stroke="black"/>
<path d="M63.9961,96.3221h -6.80315" fill="none" stroke="black"/>
<path d="M70.7992,79.5632h -13.6063" fill="none" stroke="black"/>
<path d="M70.7992,347.707h -13.6063" fill="none" stroke="black"/>
<path d="M63.9961,364.466h -6.80315" fill="none" stroke="black"/>
<path d="M63.9961,381.224h -6.80315" fill="none" stroke="black"/>
<path d="M63.9961,397.983h -6.80315" fill="none" stroke="black"/>
<path d="M70.7992,79.5632h -13.6063" fill="none" stroke="black"/>
<path d="M63.9961,62.8042h -6.80315" fill="none" stroke="black"/>
<text xml:space="preserve" x="41.1978" y="351.61" fill="black" font-size="10.216" font-family="Helvetica">0.2
</text>
<text xml:space="preserve" x="41.1978" y="284.411" fill="black" font-size="10.216" font-family="Helvetica">0.4
</text>
<text xml:space="preserve" x="41.1978" y="217.212" fill="black" font-size="10.216" font-family="Helvetica">0.6
</text>
<text xml:space="preserve" x="41.1978" y="150.487" fill="black" font-size="10.216" font-family="Helvetica">0.8
</text>
<text xml:space="preserve" x="50.6623" y="83.2884" fill="black" font-size="10.216" font-family="Helvetica">1
</text>
<g transform="rotate(-90,36.4655,156.166)">
<text xml:space="preserve" x="36.4655" y="156.166" fill="black" font-size="17.3973" font-family="Helvetica">GenMuon
</text>
</g>
<g transform="rotate(-90,18.956,194.497)">
<text xml:space="preserve" x="18.956" y="194.497" fill="black" font-size="17.3973" font-family="Helvetica">GenMuon showered
</text>
</g>
<path d="M21.3221,194.497l 0.47323, -148.594" fill="none" stroke="black" stroke-width="2"/>
<path d="M170.579,291.697v -0.206226" fill="none" stroke="black"/>
<path d="M170.579,297.376v 0.17321" fill="none" stroke="black"/>
<path d="M169.632,291.491h 1.89292" fill="none" stroke="black"/>
<path d="M169.632,297.549h 1.89292" fill="none" stroke="black"/>
<path d="M179.65,286.923v -0.466453" fill="none" stroke="black"/>
<path d="M179.65,292.602v 0.432071" fill="none" stroke="black"/>
<path d="M178.703,286.457h 1.89292" fill="none" stroke="black"/>
<path d="M178.703,293.034h 1.89292" fill="none" stroke="black"/>
<path d="M188.72,284.337v -0.694674" fill="none" stroke="black"/>
<path d="M188.72,290.016v 0.658105" fill="none" stroke="black"/>
<path d="M187.774,283.642h 1.89292" fill="none" stroke="black"/>
<path d="M187.774,290.674h 1.89292" fill="none" stroke="black"/>
<path d="M197.791,270.433v -0.895772" fill="none" stroke="black"/>
<path d="M197.791,276.112v 0.869931" fill="none" stroke="black"/>
<path d="M196.845,269.538h 1.89292" fill="none" stroke="black"/>
<path d="M196.845,276.982h 1.89292" fill="none" stroke="black"/>
<path d="M206.862,272.304v -1.07483" fill="none" stroke="black"/>
<path d="M206.862,277.983v 1.04436" fill="none" stroke="black"/>
<path d="M205.916,271.23h 1.89292" fill="none" stroke="black"/>
<path d="M205.916,279.028h 1.89292" fill="none" stroke="black"/>
<path d="M215.933,274.013v -1.43405" fill="none" stroke="black"/>
<path d="M215.933,279.692v 1.39551" fill="none" stroke="black"/>
<path d="M214.987,272.579h 1.89292" fill="none" stroke="black"/>
<path d="M214.987,281.087h 1.89292" fill="none" stroke="black"/>
<path d="M225.004,272.592v -1.76707" fill="none" stroke="black"/>
<path d="M225.004,278.271v 1.72464" fill="none" stroke="black"/>
<path d="M224.057,270.825h 1.89292" fill="none" stroke="black"/>
<path d="M224.057,279.995h 1.89292" fill="none" stroke="black"/>
<path d="M234.075,276.508v -1.84321" fill="none" stroke="black"/>
<path d="M234.075,282.187v 1.79297" fill="none" stroke="black"/>
<path d="M233.128,274.665h 1.89292" fill="none" stroke="black"/>
<path d="M233.128,283.98h 1.89292" fill="none" stroke="black"/>
<path d="M243.146,266.896v -1.97068" fill="none" stroke="black"/>
<path d="M243.146,272.575v 1.9341" fill="none" stroke="black"/>
<path d="M242.199,264.926h 1.89292" fill="none" stroke="black"/>
<path d="M242.199,274.509h 1.89292" fill="none" stroke="black"/>
<path d="M252.217,267.449v -2.13532" fill="none" stroke="black"/>
<path d="M252.217,273.127v 2.09525" fill="none" stroke="black"/>
<path d="M251.27,265.313h 1.89292" fill="none" stroke="black"/>
<path d="M251.27,275.223h 1.89292" fill="none" stroke="black"/>
<path d="M261.287,269.108v -2.27861" fill="none" stroke="black"/>
<path d="M261.287,274.787v 2.2331" fill="none" stroke="black"/>
<path d="M260.341,266.83h 1.89292" fill="none" stroke="black"/>
<path d="M260.341,277.02h 1.89292" fill="none" stroke="black"/>
<path d="M270.358,282.723v -2.34136" fill="none" stroke="black"/>
<path d="M270.358,288.401v 2.26729" fill="none" stroke="black"/>
<path d="M269.412,280.381h 1.89292" fill="none" stroke="black"/>
<path d="M269.412,290.669h 1.89292" fill="none" stroke="black"/>
<path d="M279.429,276.045v -2.42465" fill="none" stroke="black"/>
<path d="M279.429,281.724v 2.3624" fill="none" stroke="black"/>
<path d="M278.483,273.621h 1.89292" fill="none" stroke="black"/>
<path d="M278.483,284.087h 1.89292" fill="none" stroke="black"/>
<path d="M288.5,275.278v -2.431" fill="none" stroke="black"/>
<path d="M288.5,280.956v 2.3702" fill="none" stroke="black"/>
<path d="M287.554,272.847h 1.89292" fill="none" stroke="black"/>
<path d="M287.554,283.327h 1.89292" fill="none" stroke="black"/>
<path d="M297.571,273.517v -2.54636" fill="none" stroke="black"/>
<path d="M297.571,279.196v 2.48672" fill="none" stroke="black"/>
<path d="M296.624,270.971h 1.89292" fill="none" stroke="black"/>
<path d="M296.624,281.683h 1.89292" fill="none" stroke="black"/>
<path d="M306.642,267.63v -2.83735" fill="none" stroke="black"/>
<path d="M306.642,273.309v 2.78501" fill="none" stroke="black"/>
<path d="M305.695,264.793h 1.89292" fill="none" stroke="black"/>
<path d="M305.695,276.094h 1.89292" fill="none" stroke="black"/>
<path d="M315.713,275.651v -2.60935" fill="none" stroke="black"/>
<path d="M315.713,281.33v 2.54363" fill="none" stroke="black"/>
<path d="M314.766,273.042h 1.89292" fill="none" stroke="black"/>
<path d="M314.766,283.874h 1.89292" fill="none" stroke="black"/>
<path d="M324.783,272.274v -2.68059" fill="none" stroke="black"/>
<path d="M324.783,277.953v 2.62079" fill="none" stroke="black"/>
<path d="M323.837,269.593h 1.89292" fill="none" stroke="black"/>
<path d="M323.837,280.574h 1.89292" fill="none" stroke="black"/>
<path d="M333.854,270.341v -2.9086" fill="none" stroke="black"/>
<path d="M333.854,276.02v 2.84851" fill="none" stroke="black"/>
<path d="M332.908,267.433h 1.89292" fill="none" stroke="black"/>
<path d="M332.908,278.869h 1.89292" fill="none" stroke="black"/>
<path d="M342.925,269.581v -2.6622" fill="none" stroke="black"/>
<path d="M342.925,275.26v 2.60873" fill="none" stroke="black"/>
<path d="M341.979,266.919h 1.89292" fill="none" stroke="black"/>
<path d="M341.979,277.868h 1.89292" fill="none" stroke="black"/>
<path d="M351.996,254.233v -2.73333" fill="none" stroke="black"/>
<path d="M351.996,259.912v 2.71208" fill="none" stroke="black"/>
<path d="M351.05,251.5h 1.89292" fill="none" stroke="black"/>
<path d="M351.05,262.624h 1.89292" fill="none" stroke="black"/>
<path d="M361.067,250.897v -2.96312" fill="none" stroke="black"/>
<path d="M361.067,256.575v 2.94785" fill="none" stroke="black"/>
<path d="M360.12,247.934h 1.89292" fill="none" stroke="black"/>
<path d="M360.12,259.523h 1.89292" fill="none" stroke="black"/>
<path d="M370.138,249.359v -2.83627" fill="none" stroke="black"/>
<path d="M370.138,255.038v 2.82507" fill="none" stroke="black"/>
<path d="M369.191,246.523h 1.89292" fill="none" stroke="black"/>
<path d="M369.191,257.863h 1.89292" fill="none" stroke="black"/>
<path d="M379.209,233.623v -2.55086" fill="none" stroke="black"/>
<path d="M379.209,239.302v 2.57249" fill="none" stroke="black"/>
<path d="M378.262,231.072h 1.89292" fill="none" stroke="black"/>
<path d="M378.262,241.874h 1.89292" fill="none" stroke="black"/>
<path d="M388.28,227.869v -2.70332" fill="none" stroke="black"/>
<path d="M388.28,233.548v 2.73874" fill="none" stroke="black"/>
<path d="M387.333,225.166h 1.89292" fill="none" stroke="black"/>
<path d="M387.333,236.287h 1.89292" fill="none" stroke="black"/>
<path d="M397.35,233.301v -2.67642" fill="none" stroke="black"/>
<path d="M397.35,238.98v 2.69974" fill="none" stroke="black"/>
<path d="M396.404,230.625h 1.89292" fill="none" stroke="black"/>
<path d="M396.404,241.68h 1.89292" fill="none" stroke="black"/>
<path d="M406.421,228.426v -2.63851" fill="none" stroke="black"/>
<path d="M406.421,234.104v 2.67191" fill="none" stroke="black"/>
<path d="M405.475,225.787h 1.89292" fill="none" stroke="black"/>
<path d="M405.475,236.776h 1.89292" fill="none" stroke="black"/>
<path d="M415.492,223.846v -2.33318" fill="none" stroke="black"/>
<path d="M415.492,229.524v 2.3719" fill="none" stroke="black"/>
<path d="M414.546,221.512h 1.89292" fill="none" stroke="black"/>
<path d="M414.546,231.896h 1.89292" fill="none" stroke="black"/>
<path d="M424.563,217.452v -2.16261" fill="none" stroke="black"/>
<path d="M424.563,223.131v 2.21078" fill="none" stroke="black"/>
<path d="M423.617,215.29h 1.89292" fill="none" stroke="black"/>
<path d="M423.617,225.342h 1.89292" fill="none" stroke="black"/>
<path d="M433.634,232.857v -1.99651" fill="none" stroke="black"/>
<path d="M433.634,238.535v 2.01523" fill="none" stroke="black"/>
<path d="M432.687,230.86h 1.89292" fill="none" stroke="black"/>
<path d="M432.687,240.551h 1.89292" fill="none" stroke="black"/>
<path d="M442.705,220.295v -1.98" fill="none" stroke="black"/>
<path d="M442.705,225.974v 2.01976" fill="none" stroke="black"/>
<path d="M441.758,218.315h 1.89292" fill="none" stroke="black"/>
<path d="M441.758,227.993h 1.89292" fill="none" stroke="black"/>
<path d="M451.776,228.577v -1.63099" fill="none" stroke="black"/>
<path d="M451.776,234.256v 1.65312" fill="none" stroke="black"/>
<path d="M450.829,226.946h 1.89292" fill="none" stroke="black"/>
<path d="M450.829,235.909h 1.89292" fill="none" stroke="black"/>
<path d="M460.846,215.816v -1.54243" fill="none" stroke="black"/>
<path d="M460.846,221.495v 1.58188" fill="none" stroke="black"/>
<path d="M459.9,214.274h 1.89292" fill="none" stroke="black"/>
<path d="M459.9,223.077h 1.89292" fill="none" stroke="black"/>
<path d="M469.917,227.492v -3.2125" fill="none" stroke="black"/>
<path d="M469.917,233.171v 3.25563" fill="none" stroke="black"/>
<path d="M468.971,224.28h 1.89292" fill="none" stroke="black"/>
<path d="M468.971,236.427h 1.89292" fill="none" stroke="black"/>
<path d="M478.988,233.953v -7.79635" fill="none" stroke="black"/>
<path d="M478.988,239.632v 7.87606" fill="none" stroke="black"/>
<path d="M478.042,226.157h 1.89292" fill="none" stroke="black"/>
<path d="M478.042,247.508h 1.89292" fill="none" stroke="black"/>
<path d="M488.059,193.308v -11.5088" fill="none" stroke="black"/>
<path d="M488.059,198.987v 12.3103" fill="none" stroke="black"/>
<path d="M487.113,181.799h 1.89292" fill="none" stroke="black"/>
<path d="M487.113,211.297h 1.89292" fill="none" stroke="black"/>
<path d="M497.13,213.532v -23.0989" fill="none" stroke="black"/>
<path d="M497.13,219.21v 24.5184" fill="none" stroke="black"/>
<path d="M496.183,190.433h 1.89292" fill="none" stroke="black"/>
<path d="M496.183,243.729h 1.89292" fill="none" stroke="black"/>
<path d="M506.201,199.193v -21.5179" fill="none" stroke="black"/>
<path d="M506.201,204.872v 23.4778" fill="none" stroke="black"/>
<path d="M505.254,177.675h 1.89292" fill="none" stroke="black"/>
<path d="M505.254,228.35h 1.89292" fill="none" stroke="black"/>
<g fill="black">
<circle cx="61.7284" cy="363.933" r="2.83938"/>
<circle cx="70.7992" cy="347.946" r="2.83938"/>
<circle cx="79.8701" cy="342.101" r="2.83938"/>
<circle cx="88.9409" cy="334.361" r="2.83938"/>
<circle cx="98.0118" cy="328.409" r="2.83938"/>
<circle cx="107.083" cy="322.845" r="2.83938"/>
<circle cx="116.154" cy="316.968" r="2.83938"/>
<circle cx="125.224" cy="310.487" r="2.83938"/>
<circle cx="134.295" cy="306.371" r="2.83938"/>
<circle cx="143.366" cy="304.714" r="2.83938"/>
<circle cx="152.437" cy="304.781" r="2.83938"/>
<circle cx="161.508" cy="292.577" r="2.83938"/>
<circle cx="170.579" cy="294.536" r="2.83938"/>
<circle cx="179.65" cy="289.763" r="2.83938"/>
<circle cx="188.72" cy="287.176" r="2.83938"/>
<circle cx="197.791" cy="273.273" r="2.83938"/>
<circle cx="206.862" cy="275.144" r="2.83938"/>
<circle cx="215.933" cy="276.852" r="2.83938"/>
<circle cx="225.004" cy="275.431" r="2.83938"/>
<circle cx="234.075" cy="279.347" r="2.83938"/>
<circle cx="243.146" cy="269.736" r="2.83938"/>
<circle cx="252.217" cy="270.288" r="2.83938"/>
<circle cx="261.287" cy="271.948" r="2.83938"/>
<circle cx="270.358" cy="285.562" r="2.83938"/>
<circle cx="279.429" cy="278.885" r="2.83938"/>
<circle cx="288.5" cy="278.117" r="2.83938"/>
<circle cx="297.571" cy="276.357" r="2.83938"/>
<circle cx="306.642" cy="270.47" r="2.83938"/>
<circle cx="315.713" cy="278.491" r="2.83938"/>
<circle cx="324.783" cy="275.113" r="2.83938"/>
<circle cx="333.854" cy="273.181" r="2.83938"/>
<circle cx="342.925" cy="272.42" r="2.83938"/>
<circle cx="351.996" cy="257.072" r="2.83938"/>
<circle cx="361.067" cy="253.736" r="2.83938"/>
<circle cx="370.138" cy="252.199" r="2.83938"/>
<circle cx="379.209" cy="236.463" r="2.83938"/>
<circle cx="388.28" cy="230.709" r="2.83938"/>
<circle cx="397.35" cy="236.141" r="2.83938"/>
<circle cx="406.421" cy="231.265" r="2.83938"/>
<circle cx="415.492" cy="226.685" r="2.83938"/>
<circle cx="424.563" cy="220.292" r="2.83938"/>
<circle cx="433.634" cy="235.696" r="2.83938"/>
<circle cx="442.705" cy="223.134" r="2.83938"/>
<circle cx="451.776" cy="231.416" r="2.83938"/>
<circle cx="460.846" cy="218.656" r="2.83938"/>
<circle cx="469.917" cy="230.332" r="2.83938"/>
<circle cx="478.988" cy="236.793" r="2.83938"/>
<circle cx="488.059" cy="196.147" r="2.83938"/>
<circle cx="497.13" cy="216.371" r="2.83938"/>
<circle cx="506.201" cy="202.033" r="2.83938"/>
</g>
<path d="M161.508,236.314v -0.0534186" fill="none" stroke="#ff0000"/>
<path d="M161.508,241.993v 0.0581243" fill="none" stroke="#ff0000"/>
<path d="M160.561,236.261h 1.89292" fill="none" stroke="#ff0000"/>
<path d="M160.561,242.051h 1.89292" fill="none" stroke="#ff0000"/>
<path d="M170.579,234.86v -0.307878" fill="none" stroke="#ff0000"/>
<path d="M170.579,240.538v 0.31446" fill="none" stroke="#ff0000"/>
<path d="M169.632,234.552h 1.89292" fill="none" stroke="#ff0000"/>
<path d="M169.632,240.853h 1.89292" fill="none" stroke="#ff0000"/>
<path d="M179.65,226.488v -0.532639" fill="none" stroke="#ff0000"/>
<path d="M179.65,232.166v 0.547015" fill="none" stroke="#ff0000"/>
<path d="M178.703,225.955h 1.89292" fill="none" stroke="#ff0000"/>
<path d="M178.703,232.713h 1.89292" fill="none" stroke="#ff0000"/>
<path d="M188.72,224.976v -0.7464" fill="none" stroke="#ff0000"/>
<path d="M188.72,230.655v 0.76406" fill="none" stroke="#ff0000"/>
<path d="M187.774,224.23h 1.89292" fill="none" stroke="#ff0000"/>
<path d="M187.774,231.419h 1.89292" fill="none" stroke="#ff0000"/>
<path d="M197.791,218.518v -0.87121" fill="none" stroke="#ff0000"/>
<path d="M197.791,224.197v 0.89673" fill="none" stroke="#ff0000"/>
<path d="M196.845,217.647h 1.89292" fill="none" stroke="#ff0000"/>
<path d="M196.845,225.093h 1.89292" fill="none" stroke="#ff0000"/>
<path d="M206.862,220.423v -1.06141" fill="none" stroke="#ff0000"/>
<path d="M206.862,226.102v 1.08741" fill="none" stroke="#ff0000"/>
<path d="M205.916,219.362h 1.89292" fill="none" stroke="#ff0000"/>
<path d="M205.916,227.189h 1.89292" fill="none" stroke="#ff0000"/>
<path d="M215.933,221.19v -1.42617" fill="none" stroke="#ff0000"/>
<path d="M215.933,226.869v 1.45617" fill="none" stroke="#ff0000"/>
<path d="M214.987,219.764h 1.89292" fill="none" stroke="#ff0000"/>
<path d="M214.987,228.325h 1.89292" fill="none" stroke="#ff0000"/>
<path d="M225.004,222.156v -1.7544" fill="none" stroke="#ff0000"/>
<path d="M225.004,227.835v 1.78763" fill="none" stroke="#ff0000"/>
<path d="M224.057,220.401h 1.89292" fill="none" stroke="#ff0000"/>
<path d="M224.057,229.622h 1.89292" fill="none" stroke="#ff0000"/>
<path d="M234.075,226.626v -1.86446" fill="none" stroke="#ff0000"/>
<path d="M234.075,232.304v 1.89205" fill="none" stroke="#ff0000"/>
<path d="M233.128,224.761h 1.89292" fill="none" stroke="#ff0000"/>
<path d="M233.128,234.196h 1.89292" fill="none" stroke="#ff0000"/>
<path d="M243.146,218.561v -1.91857" fill="none" stroke="#ff0000"/>
<path d="M243.146,224.24v 1.96029" fill="none" stroke="#ff0000"/>
<path d="M242.199,216.642h 1.89292" fill="none" stroke="#ff0000"/>
<path d="M242.199,226.2h 1.89292" fill="none" stroke="#ff0000"/>
<path d="M252.217,221.178v -2.09525" fill="none" stroke="#ff0000"/>
<path d="M252.217,226.857v 2.13532" fill="none" stroke="#ff0000"/>
<path d="M251.27,219.083h 1.89292" fill="none" stroke="#ff0000"/>
<path d="M251.27,228.992h 1.89292" fill="none" stroke="#ff0000"/>
<path d="M261.287,223.103v -2.25121" fill="none" stroke="#ff0000"/>
<path d="M261.287,228.782v 2.29013" fill="none" stroke="#ff0000"/>
<path d="M260.341,220.852h 1.89292" fill="none" stroke="#ff0000"/>
<path d="M260.341,231.072h 1.89292" fill="none" stroke="#ff0000"/>
<path d="M270.358,227.225v -2.39746" fill="none" stroke="#ff0000"/>
<path d="M270.358,232.904v 2.43039" fill="none" stroke="#ff0000"/>
<path d="M269.412,224.828h 1.89292" fill="none" stroke="#ff0000"/>
<path d="M269.412,235.334h 1.89292" fill="none" stroke="#ff0000"/>
<path d="M279.429,229.165v -2.45094" fill="none" stroke="#ff0000"/>
<path d="M279.429,234.844v 2.48065" fill="none" stroke="#ff0000"/>
<path d="M278.483,226.714h 1.89292" fill="none" stroke="#ff0000"/>
<path d="M278.483,237.324h 1.89292" fill="none" stroke="#ff0000"/>
<path d="M288.5,231.225v -2.46092" fill="none" stroke="#ff0000"/>
<path d="M288.5,236.904v 2.48661" fill="none" stroke="#ff0000"/>
<path d="M287.554,228.765h 1.89292" fill="none" stroke="#ff0000"/>
<path d="M287.554,239.391h 1.89292" fill="none" stroke="#ff0000"/>
<path d="M297.571,225.065v -2.54262" fill="none" stroke="#ff0000"/>
<path d="M297.571,230.744v 2.58192" fill="none" stroke="#ff0000"/>
<path d="M296.624,222.523h 1.89292" fill="none" stroke="#ff0000"/>
<path d="M296.624,233.326h 1.89292" fill="none" stroke="#ff0000"/>
<path d="M306.642,215.896v -2.75304" fill="none" stroke="#ff0000"/>
<path d="M306.642,221.575v 2.81684" fill="none" stroke="#ff0000"/>
<path d="M305.695,213.143h 1.89292" fill="none" stroke="#ff0000"/>
<path d="M305.695,224.392h 1.89292" fill="none" stroke="#ff0000"/>
<path d="M315.713,233.073v -2.64681" fill="none" stroke="#ff0000"/>
<path d="M315.713,238.751v 2.67037" fill="none" stroke="#ff0000"/>
<path d="M314.766,230.426h 1.89292" fill="none" stroke="#ff0000"/>
<path d="M314.766,241.422h 1.89292" fill="none" stroke="#ff0000"/>
<path d="M324.783,216.353v -2.62079" fill="none" stroke="#ff0000"/>
<path d="M324.783,222.032v 2.68059" fill="none" stroke="#ff0000"/>
<path d="M323.837,213.732h 1.89292" fill="none" stroke="#ff0000"/>
<path d="M323.837,224.712h 1.89292" fill="none" stroke="#ff0000"/>
<path d="M333.854,220.907v -2.86459" fill="none" stroke="#ff0000"/>
<path d="M333.854,226.586v 2.91862" fill="none" stroke="#ff0000"/>
<path d="M332.908,218.042h 1.89292" fill="none" stroke="#ff0000"/>
<path d="M332.908,229.504h 1.89292" fill="none" stroke="#ff0000"/>
<path d="M342.925,223.171v -2.63154" fill="none" stroke="#ff0000"/>
<path d="M342.925,228.85v 2.67628" fill="none" stroke="#ff0000"/>
<path d="M341.979,220.54h 1.89292" fill="none" stroke="#ff0000"/>
<path d="M341.979,231.526h 1.89292" fill="none" stroke="#ff0000"/>
<path d="M351.996,210.726v -2.58672" fill="none" stroke="#ff0000"/>
<path d="M351.996,216.405v 2.65873" fill="none" stroke="#ff0000"/>
<path d="M351.05,208.139h 1.89292" fill="none" stroke="#ff0000"/>
<path d="M351.05,219.063h 1.89292" fill="none" stroke="#ff0000"/>
<path d="M361.067,196.726v -2.67379" fill="none" stroke="#ff0000"/>
<path d="M361.067,202.405v 2.78426" fill="none" stroke="#ff0000"/>
<path d="M360.12,194.052h 1.89292" fill="none" stroke="#ff0000"/>
<path d="M360.12,205.189h 1.89292" fill="none" stroke="#ff0000"/>
<path d="M370.138,197.1v -2.55838" fill="none" stroke="#ff0000"/>
<path d="M370.138,202.779v 2.66332" fill="none" stroke="#ff0000"/>
<path d="M369.191,194.542h 1.89292" fill="none" stroke="#ff0000"/>
<path d="M369.191,205.442h 1.89292" fill="none" stroke="#ff0000"/>
<path d="M379.209,185.928v -2.18467" fill="none" stroke="#ff0000"/>
<path d="M379.209,191.607v 2.30302" fill="none" stroke="#ff0000"/>
<path d="M378.262,183.744h 1.89292" fill="none" stroke="#ff0000"/>
<path d="M378.262,193.91h 1.89292" fill="none" stroke="#ff0000"/>
<path d="M388.28,167.691v -2.06599" fill="none" stroke="#ff0000"/>
<path d="M388.28,173.37v 2.23166" fill="none" stroke="#ff0000"/>
<path d="M387.333,165.625h 1.89292" fill="none" stroke="#ff0000"/>
<path d="M387.333,175.601h 1.89292" fill="none" stroke="#ff0000"/>
<path d="M397.35,169.294v -2.05258" fill="none" stroke="#ff0000"/>
<path d="M397.35,174.973v 2.21204" fill="none" stroke="#ff0000"/>
<path d="M396.404,167.241h 1.89292" fill="none" stroke="#ff0000"/>
<path d="M396.404,177.185h 1.89292" fill="none" stroke="#ff0000"/>
<path d="M406.421,164.533v -1.95066" fill="none" stroke="#ff0000"/>
<path d="M406.421,170.212v 2.11912" fill="none" stroke="#ff0000"/>
<path d="M405.475,162.583h 1.89292" fill="none" stroke="#ff0000"/>
<path d="M405.475,172.331h 1.89292" fill="none" stroke="#ff0000"/>
<path d="M415.492,162.596v -1.669" fill="none" stroke="#ff0000"/>
<path d="M415.492,168.275v 1.8242" fill="none" stroke="#ff0000"/>
<path d="M414.546,160.927h 1.89292" fill="none" stroke="#ff0000"/>
<path d="M414.546,170.099h 1.89292" fill="none" stroke="#ff0000"/>
<path d="M424.563,147.088v -1.24641" fill="none" stroke="#ff0000"/>
<path d="M424.563,152.767v 1.42184" fill="none" stroke="#ff0000"/>
<path d="M423.617,145.842h 1.89292" fill="none" stroke="#ff0000"/>
<path d="M423.617,154.189h 1.89292" fill="none" stroke="#ff0000"/>
<path d="M433.634,156.122v -1.23806" fill="none" stroke="#ff0000"/>
<path d="M433.634,161.801v 1.38285" fill="none" stroke="#ff0000"/>
<path d="M432.687,154.884h 1.89292" fill="none" stroke="#ff0000"/>
<path d="M432.687,163.184h 1.89292" fill="none" stroke="#ff0000"/>
<path d="M442.705,142.572v -0.988523" fill="none" stroke="#ff0000"/>
<path d="M442.705,148.251v 1.15813" fill="none" stroke="#ff0000"/>
<path d="M441.758,141.584h 1.89292" fill="none" stroke="#ff0000"/>
<path d="M441.758,149.409h 1.89292" fill="none" stroke="#ff0000"/>
<path d="M451.776,144.495v -0.728397" fill="none" stroke="#ff0000"/>
<path d="M451.776,150.174v 0.869631" fill="none" stroke="#ff0000"/>
<path d="M450.829,143.766h 1.89292" fill="none" stroke="#ff0000"/>
<path d="M450.829,151.043h 1.89292" fill="none" stroke="#ff0000"/>
<path d="M460.846,138.015v -0.564487" fill="none" stroke="#ff0000"/>
<path d="M460.846,143.694v 0.712701" fill="none" stroke="#ff0000"/>
<path d="M459.9,137.451h 1.89292" fill="none" stroke="#ff0000"/>
<path d="M459.9,144.406h 1.89292" fill="none" stroke="#ff0000"/>
<path d="M469.917,143.594v -1.95115" fill="none" stroke="#ff0000"/>
<path d="M469.917,149.272v 2.21157" fill="none" stroke="#ff0000"/>
<path d="M468.971,141.642h 1.89292" fill="none" stroke="#ff0000"/>
<path d="M468.971,151.484h 1.89292" fill="none" stroke="#ff0000"/>
<path d="M478.988,144.978v -5.51031" fill="none" stroke="#ff0000"/>
<path d="M478.988,150.657v 6.28508" fill="none" stroke="#ff0000"/>
<path d="M478.042,139.468h 1.89292" fill="none" stroke="#ff0000"/>
<path d="M478.042,156.942h 1.89292" fill="none" stroke="#ff0000"/>
<path d="M488.059,115.585v -6.44655" fill="none" stroke="#ff0000"/>
<path d="M488.059,121.264v 8.55028" fill="none" stroke="#ff0000"/>
<path d="M487.113,109.139h 1.89292" fill="none" stroke="#ff0000"/>
<path d="M487.113,129.814h 1.89292" fill="none" stroke="#ff0000"/>
<path d="M497.13,131.447v -15.4086" fill="none" stroke="#ff0000"/>
<path d="M497.13,137.126v 20.8282" fill="none" stroke="#ff0000"/>
<path d="M496.183,116.038h 1.89292" fill="none" stroke="#ff0000"/>
<path d="M496.183,157.954h 1.89292" fill="none" stroke="#ff0000"/>
<path d="M506.201,134.736v -15.3526" fill="none" stroke="#ff0000"/>
<path d="M506.201,140.414v 20.2739" fill="none" stroke="#ff0000"/>
<path d="M505.254,119.383h 1.89292" fill="none" stroke="#ff0000"/>
<path d="M505.254,160.688h 1.89292" fill="none" stroke="#ff0000"/>
<g fill="#ff0000">
<circle cx="61.7284" cy="334.214" r="2.83938"/>
<circle cx="70.7992" cy="307.308" r="2.83938"/>
<circle cx="79.8701" cy="300.481" r="2.83938"/>
<circle cx="88.9409" cy="289.846" r="2.83938"/>
<circle cx="98.0118" cy="283.64" r="2.83938"/>
<circle cx="107.083" cy="277.095" r="2.83938"/>
<circle cx="116.154" cy="271.82" r="2.83938"/>
<circle cx="125.224" cy="262.369" r="2.83938"/>
<circle cx="134.295" cy="254.394" r="2.83938"/>
<circle cx="143.366" cy="253.572" r="2.83938"/>
<circle cx="152.437" cy="245.598" r="2.83938"/>
<circle cx="161.508" cy="239.154" r="2.83938"/>
<circle cx="170.579" cy="237.699" r="2.83938"/>
<circle cx="179.65" cy="229.327" r="2.83938"/>
<circle cx="188.72" cy="227.816" r="2.83938"/>
<circle cx="197.791" cy="221.357" r="2.83938"/>
<circle cx="206.862" cy="223.262" r="2.83938"/>
<circle cx="215.933" cy="224.03" r="2.83938"/>
<circle cx="225.004" cy="224.995" r="2.83938"/>
<circle cx="234.075" cy="229.465" r="2.83938"/>
<circle cx="243.146" cy="221.4" r="2.83938"/>
<circle cx="252.217" cy="224.018" r="2.83938"/>
<circle cx="261.287" cy="225.943" r="2.83938"/>
<circle cx="270.358" cy="230.065" r="2.83938"/>
<circle cx="279.429" cy="232.004" r="2.83938"/>
<circle cx="288.5" cy="234.065" r="2.83938"/>
<circle cx="297.571" cy="227.905" r="2.83938"/>
<circle cx="306.642" cy="218.735" r="2.83938"/>
<circle cx="315.713" cy="235.912" r="2.83938"/>
<circle cx="324.783" cy="219.192" r="2.83938"/>
<circle cx="333.854" cy="223.746" r="2.83938"/>
<circle cx="342.925" cy="226.011" r="2.83938"/>
<circle cx="351.996" cy="213.565" r="2.83938"/>
<circle cx="361.067" cy="199.566" r="2.83938"/>
<circle cx="370.138" cy="199.939" r="2.83938"/>
<circle cx="379.209" cy="188.768" r="2.83938"/>
<circle cx="388.28" cy="170.53" r="2.83938"/>
<circle cx="397.35" cy="172.133" r="2.83938"/>
<circle cx="406.421" cy="167.373" r="2.83938"/>
<circle cx="415.492" cy="165.436" r="2.83938"/>
<circle cx="424.563" cy="149.927" r="2.83938"/>
<circle cx="433.634" cy="158.962" r="2.83938"/>
<circle cx="442.705" cy="145.412" r="2.83938"/>
<circle cx="451.776" cy="147.334" r="2.83938"/>
<circle cx="460.846" cy="140.854" r="2.83938"/>
<circle cx="469.917" cy="146.433" r="2.83938"/>
<circle cx="478.988" cy="147.818" r="2.83938"/>
<circle cx="488.059" cy="118.425" r="2.83938"/>
<circle cx="497.13" cy="134.286" r="2.83938"/>
<circle cx="506.201" cy="137.575" r="2.83938"/>
</g>
<path d="M170.579,305.906v -0.120797" fill="none" stroke="#00ff00"/>
<path d="M170.579,311.585v 0.0778534" fill="none" stroke="#00ff00"/>
<path d="M169.632,305.785h 1.89292" fill="none" stroke="#00ff00"/>
<path d="M169.632,311.663h 1.89292" fill="none" stroke="#00ff00"/>
<path d="M179.65,296.598v -0.413571" fill="none" stroke="#00ff00"/>
<path d="M179.65,302.277v 0.371368" fill="none" stroke="#00ff00"/>
<path d="M178.703,296.185h 1.89292" fill="none" stroke="#00ff00"/>
<path d="M178.703,302.648h 1.89292" fill="none" stroke="#00ff00"/>
<path d="M188.72,293.781v -0.643669" fill="none" stroke="#00ff00"/>
<path d="M188.72,299.46v 0.598456" fill="none" stroke="#00ff00"/>
<path d="M187.774,293.137h 1.89292" fill="none" stroke="#00ff00"/>
<path d="M187.774,300.058h 1.89292" fill="none" stroke="#00ff00"/>
<path d="M197.791,283.25v -0.846315" fill="none" stroke="#00ff00"/>
<path d="M197.791,288.929v 0.807781" fill="none" stroke="#00ff00"/>
<path d="M196.845,282.404h 1.89292" fill="none" stroke="#00ff00"/>
<path d="M196.845,289.737h 1.89292" fill="none" stroke="#00ff00"/>
<path d="M206.862,285.854v -1.01592" fill="none" stroke="#00ff00"/>
<path d="M206.862,291.533v 0.970695" fill="none" stroke="#00ff00"/>
<path d="M205.916,284.838h 1.89292" fill="none" stroke="#00ff00"/>
<path d="M205.916,292.504h 1.89292" fill="none" stroke="#00ff00"/>
<path d="M215.933,288.014v -1.36408" fill="none" stroke="#00ff00"/>
<path d="M215.933,293.693v 1.30734" fill="none" stroke="#00ff00"/>
<path d="M214.987,286.65h 1.89292" fill="none" stroke="#00ff00"/>
<path d="M214.987,295h 1.89292" fill="none" stroke="#00ff00"/>
<path d="M225.004,284.344v -1.70979" fill="none" stroke="#00ff00"/>
<path d="M225.004,290.023v 1.64971" fill="none" stroke="#00ff00"/>
<path d="M224.057,282.634h 1.89292" fill="none" stroke="#00ff00"/>
<path d="M224.057,291.672h 1.89292" fill="none" stroke="#00ff00"/>
<path d="M234.075,287.961v -1.77887" fill="none" stroke="#00ff00"/>
<path d="M234.075,293.639v 1.71073" fill="none" stroke="#00ff00"/>
<path d="M233.128,286.182h 1.89292" fill="none" stroke="#00ff00"/>
<path d="M233.128,295.35h 1.89292" fill="none" stroke="#00ff00"/>
<path d="M243.146,281.688v -1.90717" fill="none" stroke="#00ff00"/>
<path d="M243.146,287.366v 1.8466" fill="none" stroke="#00ff00"/>
<path d="M242.199,279.78h 1.89292" fill="none" stroke="#00ff00"/>
<path d="M242.199,289.213h 1.89292" fill="none" stroke="#00ff00"/>
<path d="M252.217,278.17v -2.09097" fill="none" stroke="#00ff00"/>
<path d="M252.217,283.849v 2.03231" fill="none" stroke="#00ff00"/>
<path d="M251.27,276.079h 1.89292" fill="none" stroke="#00ff00"/>
<path d="M251.27,285.881h 1.89292" fill="none" stroke="#00ff00"/>
<path d="M261.287,282.85v -2.21231" fill="none" stroke="#00ff00"/>
<path d="M261.287,288.529v 2.14155" fill="none" stroke="#00ff00"/>
<path d="M260.341,280.638h 1.89292" fill="none" stroke="#00ff00"/>
<path d="M260.341,290.67h 1.89292" fill="none" stroke="#00ff00"/>
<path d="M270.358,287.112v -2.31211" fill="none" stroke="#00ff00"/>
<path d="M270.358,292.791v 2.22955" fill="none" stroke="#00ff00"/>
<path d="M269.412,284.8h 1.89292" fill="none" stroke="#00ff00"/>
<path d="M269.412,295.021h 1.89292" fill="none" stroke="#00ff00"/>
<path d="M279.429,286.57v -2.36156" fill="none" stroke="#00ff00"/>
<path d="M279.429,292.248v 2.27864" fill="none" stroke="#00ff00"/>
<path d="M278.483,284.208h 1.89292" fill="none" stroke="#00ff00"/>
<path d="M278.483,294.527h 1.89292" fill="none" stroke="#00ff00"/>
<path d="M288.5,283.258v -2.38636" fill="none" stroke="#00ff00"/>
<path d="M288.5,288.937v 2.30987" fill="none" stroke="#00ff00"/>
<path d="M287.554,280.872h 1.89292" fill="none" stroke="#00ff00"/>
<path d="M287.554,291.247h 1.89292" fill="none" stroke="#00ff00"/>
<path d="M297.571,277.168v -2.52847" fill="none" stroke="#00ff00"/>
<path d="M297.571,282.846v 2.46137" fill="none" stroke="#00ff00"/>
<path d="M296.624,274.639h 1.89292" fill="none" stroke="#00ff00"/>
<path d="M296.624,285.308h 1.89292" fill="none" stroke="#00ff00"/>
<path d="M306.642,274.917v -2.80642" fill="none" stroke="#00ff00"/>
<path d="M306.642,280.595v 2.73771" fill="none" stroke="#00ff00"/>
<path d="M305.695,272.11h 1.89292" fill="none" stroke="#00ff00"/>
<path d="M305.695,283.333h 1.89292" fill="none" stroke="#00ff00"/>
<path d="M315.713,287.573v -2.53515" fill="none" stroke="#00ff00"/>
<path d="M315.713,293.252v 2.44438" fill="none" stroke="#00ff00"/>
<path d="M314.766,285.038h 1.89292" fill="none" stroke="#00ff00"/>
<path d="M314.766,295.696h 1.89292" fill="none" stroke="#00ff00"/>
<path d="M324.783,272.621v -2.67906" fill="none" stroke="#00ff00"/>
<path d="M324.783,278.3v 2.61852" fill="none" stroke="#00ff00"/>
<path d="M323.837,269.942h 1.89292" fill="none" stroke="#00ff00"/>
<path d="M323.837,280.919h 1.89292" fill="none" stroke="#00ff00"/>
<path d="M333.854,277.831v -2.8721" fill="none" stroke="#00ff00"/>
<path d="M333.854,283.51v 2.7947" fill="none" stroke="#00ff00"/>
<path d="M332.908,274.959h 1.89292" fill="none" stroke="#00ff00"/>
<path d="M332.908,286.305h 1.89292" fill="none" stroke="#00ff00"/>
<path d="M342.925,272.331v -2.65095" fill="none" stroke="#00ff00"/>
<path d="M342.925,278.01v 2.59165" fill="none" stroke="#00ff00"/>
<path d="M341.979,269.68h 1.89292" fill="none" stroke="#00ff00"/>
<path d="M341.979,280.601h 1.89292" fill="none" stroke="#00ff00"/>
<path d="M351.996,262.238v -2.72043" fill="none" stroke="#00ff00"/>
<path d="M351.996,267.917v 2.68202" fill="none" stroke="#00ff00"/>
<path d="M351.05,259.518h 1.89292" fill="none" stroke="#00ff00"/>
<path d="M351.05,270.599h 1.89292" fill="none" stroke="#00ff00"/>
<path d="M361.067,254.658v -2.96111" fill="none" stroke="#00ff00"/>
<path d="M361.067,260.337v 2.93713" fill="none" stroke="#00ff00"/>
<path d="M360.12,251.697h 1.89292" fill="none" stroke="#00ff00"/>
<path d="M360.12,263.274h 1.89292" fill="none" stroke="#00ff00"/>
<path d="M370.138,254.765v -2.83407" fill="none" stroke="#00ff00"/>
<path d="M370.138,260.444v 2.81087" fill="none" stroke="#00ff00"/>
<path d="M369.191,251.931h 1.89292" fill="none" stroke="#00ff00"/>
<path d="M369.191,263.255h 1.89292" fill="none" stroke="#00ff00"/>
<path d="M379.209,247.109v -2.57445" fill="none" stroke="#00ff00"/>
<path d="M379.209,252.788v 2.5688" fill="none" stroke="#00ff00"/>
<path d="M378.262,244.535h 1.89292" fill="none" stroke="#00ff00"/>
<path d="M378.262,255.357h 1.89292" fill="none" stroke="#00ff00"/>
<path d="M388.28,225.42v -2.6923" fill="none" stroke="#00ff00"/>
<path d="M388.28,231.099v 2.733" fill="none" stroke="#00ff00"/>
<path d="M387.333,222.728h 1.89292" fill="none" stroke="#00ff00"/>
<path d="M387.333,233.832h 1.89292" fill="none" stroke="#00ff00"/>
<path d="M397.35,239.152v -2.69166" fill="none" stroke="#00ff00"/>
<path d="M397.35,244.83v 2.70259" fill="none" stroke="#00ff00"/>
<path d="M396.404,236.46h 1.89292" fill="none" stroke="#00ff00"/>
<path d="M396.404,247.533h 1.89292" fill="none" stroke="#00ff00"/>
<path d="M406.421,227.401v -2.63421" fill="none" stroke="#00ff00"/>
<path d="M406.421,233.079v 2.66978" fill="none" stroke="#00ff00"/>
<path d="M405.475,224.766h 1.89292" fill="none" stroke="#00ff00"/>
<path d="M405.475,235.749h 1.89292" fill="none" stroke="#00ff00"/>
<path d="M415.492,227.539v -2.34917" fill="none" stroke="#00ff00"/>
<path d="M415.492,233.218v 2.3809" fill="none" stroke="#00ff00"/>
<path d="M414.546,225.19h 1.89292" fill="none" stroke="#00ff00"/>
<path d="M414.546,235.599h 1.89292" fill="none" stroke="#00ff00"/>
<path d="M424.563,215.117v -2.14883" fill="none" stroke="#00ff00"/>
<path d="M424.563,220.795v 2.20119" fill="none" stroke="#00ff00"/>
<path d="M423.617,212.968h 1.89292" fill="none" stroke="#00ff00"/>
<path d="M423.617,222.997h 1.89292" fill="none" stroke="#00ff00"/>
<path d="M433.634,226.462v -1.97547" fill="none" stroke="#00ff00"/>
<path d="M433.634,232.141v 2.00464" fill="none" stroke="#00ff00"/>
<path d="M432.687,224.487h 1.89292" fill="none" stroke="#00ff00"/>
<path d="M432.687,234.145h 1.89292" fill="none" stroke="#00ff00"/>
<path d="M442.705,214.088v -1.94599" fill="none" stroke="#00ff00"/>
<path d="M442.705,219.767v 1.99604" fill="none" stroke="#00ff00"/>
<path d="M441.758,212.142h 1.89292" fill="none" stroke="#00ff00"/>
<path d="M441.758,221.763h 1.89292" fill="none" stroke="#00ff00"/>
<path d="M451.776,211.117v -1.55121" fill="none" stroke="#00ff00"/>
<path d="M451.776,216.796v 1.59791" fill="none" stroke="#00ff00"/>
<path d="M450.829,209.566h 1.89292" fill="none" stroke="#00ff00"/>
<path d="M450.829,218.394h 1.89292" fill="none" stroke="#00ff00"/>
<path d="M460.846,204.734v -1.47505" fill="none" stroke="#00ff00"/>
<path d="M460.846,210.413v 1.52987" fill="none" stroke="#00ff00"/>
<path d="M459.9,203.259h 1.89292" fill="none" stroke="#00ff00"/>
<path d="M459.9,211.943h 1.89292" fill="none" stroke="#00ff00"/>
<path d="M469.917,210.048v -3.09541" fill="none" stroke="#00ff00"/>
<path d="M469.917,215.727v 3.18332" fill="none" stroke="#00ff00"/>
<path d="M468.971,206.952h 1.89292" fill="none" stroke="#00ff00"/>
<path d="M468.971,218.91h 1.89292" fill="none" stroke="#00ff00"/>
<path d="M478.988,214.452v -7.57944" fill="none" stroke="#00ff00"/>
<path d="M478.988,220.131v 7.80939" fill="none" stroke="#00ff00"/>
<path d="M478.042,206.873h 1.89292" fill="none" stroke="#00ff00"/>
<path d="M478.042,227.94h 1.89292" fill="none" stroke="#00ff00"/>
<path d="M488.059,171.448v -10.5986" fill="none" stroke="#00ff00"/>
<path d="M488.059,177.127v 11.749" fill="none" stroke="#00ff00"/>
<path d="M487.113,160.85h 1.89292" fill="none" stroke="#00ff00"/>
<path d="M487.113,188.876h 1.89292" fill="none" stroke="#00ff00"/>
<path d="M497.13,199.851v -22.3408" fill="none" stroke="#00ff00"/>
<path d="M497.13,205.53v 24.3961" fill="none" stroke="#00ff00"/>
<path d="M496.183,177.51h 1.89292" fill="none" stroke="#00ff00"/>
<path d="M496.183,229.926h 1.89292" fill="none" stroke="#00ff00"/>
<path d="M506.201,231.422v -22.991" fill="none" stroke="#00ff00"/>
<path d="M506.201,237.101v 23.5486" fill="none" stroke="#00ff00"/>
<path d="M505.254,208.431h 1.89292" fill="none" stroke="#00ff00"/>
<path d="M505.254,260.649h 1.89292" fill="none" stroke="#00ff00"/>
<g fill="#00ff00">
<circle cx="61.7284" cy="388.256" r="2.83938"/>
<circle cx="70.7992" cy="373.678" r="2.83938"/>
<circle cx="79.8701" cy="364.793" r="2.83938"/>
<circle cx="88.9409" cy="355.765" r="2.83938"/>
<circle cx="98.0118" cy="348.786" r="2.83938"/>
<circle cx="107.083" cy="343.948" r="2.83938"/>
<circle cx="116.154" cy="336.815" r="2.83938"/>
<circle cx="125.224" cy="327.482" r="2.83938"/>
<circle cx="134.295" cy="324.719" r="2.83938"/>
<circle cx="143.366" cy="321.569" r="2.83938"/>
<circle cx="152.437" cy="317.896" r="2.83938"/>
<circle cx="161.508" cy="306.636" r="2.83938"/>
<circle cx="170.579" cy="308.746" r="2.83938"/>
<circle cx="179.65" cy="299.438" r="2.83938"/>
<circle cx="188.72" cy="296.62" r="2.83938"/>
<circle cx="197.791" cy="286.089" r="2.83938"/>
<circle cx="206.862" cy="288.694" r="2.83938"/>
<circle cx="215.933" cy="290.853" r="2.83938"/>
<circle cx="225.004" cy="287.183" r="2.83938"/>
<circle cx="234.075" cy="290.8" r="2.83938"/>
<circle cx="243.146" cy="284.527" r="2.83938"/>
<circle cx="252.217" cy="281.009" r="2.83938"/>
<circle cx="261.287" cy="285.689" r="2.83938"/>
<circle cx="270.358" cy="289.952" r="2.83938"/>
<circle cx="279.429" cy="289.409" r="2.83938"/>
<circle cx="288.5" cy="286.097" r="2.83938"/>
<circle cx="297.571" cy="280.007" r="2.83938"/>
<circle cx="306.642" cy="277.756" r="2.83938"/>
<circle cx="315.713" cy="290.413" r="2.83938"/>
<circle cx="324.783" cy="275.461" r="2.83938"/>
<circle cx="333.854" cy="280.671" r="2.83938"/>
<circle cx="342.925" cy="275.17" r="2.83938"/>
<circle cx="351.996" cy="265.078" r="2.83938"/>
<circle cx="361.067" cy="257.498" r="2.83938"/>
<circle cx="370.138" cy="257.605" r="2.83938"/>
<circle cx="379.209" cy="249.949" r="2.83938"/>
<circle cx="388.28" cy="228.26" r="2.83938"/>
<circle cx="397.35" cy="241.991" r="2.83938"/>
<circle cx="406.421" cy="230.24" r="2.83938"/>
<circle cx="415.492" cy="230.378" r="2.83938"/>
<circle cx="424.563" cy="217.956" r="2.83938"/>
<circle cx="433.634" cy="229.301" r="2.83938"/>
<circle cx="442.705" cy="216.927" r="2.83938"/>
<circle cx="451.776" cy="213.956" r="2.83938"/>
<circle cx="460.846" cy="207.574" r="2.83938"/>
<circle cx="469.917" cy="212.887" r="2.83938"/>
<circle cx="478.988" cy="217.291" r="2.83938"/>
<circle cx="488.059" cy="174.288" r="2.83938"/>
<circle cx="497.13" cy="202.69" r="2.83938"/>
<circle cx="506.201" cy="234.261" r="2.83938"/>
</g>
<text xml:space="preserve" x="162.818" y="38.3316" fill="black" font-size="13.173" font-family="Helvetica"> Phase-2 Simulation)
</text>
<text xml:space="preserve" x="133.951" y="38.3316" fill="black" font-size="13.173" font-family="Helvetica" font-weight="bold">CMS
</text>
<text xml:space="preserve" x="57.7608" y="38.3316" fill="black" font-size="13.173" font-family="Helvetica">Private work (
</text>
<text xml:space="preserve" x="429.719" y="39.2781" fill="black" font-size="13.173" font-family="Helvetica">200 PU
</text>
<rect x="340.657" y="322.317" width="85.0394" height="46.0452" fill="white"/>
<text xml:space="preserve" x="362.047" y="333.627" fill="black" font-size="12.3281" font-family="Helvetica">Method 1
</text>
<g fill="black">
<circle cx="351.287" cy="329.991" r="2.83938"/>
</g>
<text xml:space="preserve" x="362.047" y="348.77" fill="black" font-size="12.3281" font-family="Helvetica">Method 2
</text>
<g fill="#ff0000">
<circle cx="351.287" cy="345.339" r="2.83938"/>
</g>
<text xml:space="preserve" x="362.047" y="363.914" fill="black" font-size="12.3281" font-family="Helvetica">Method 3
</text>
<g fill="#00ff00">
<circle cx="351.287" cy="360.688" r="2.83938"/>
</g></svg>
